# File created by Blade
# Date/Time:  Tue Sep 30 19:15:05 2014
# Frame Rate: 120.000 fps
#------------------------------------------------------
:FULLY-SPECIFIED
:DEGREES
3990
root -2.568095 33.876332 -3.787592 41.446214 18.772885 -27.613813
Spine -26.037511 3.638497 21.952066
Head -51.053697 -56.797400 62.387968
LeftShoulder 11.754002 3.771525 29.777742
LeftArm -26.621641 -39.524937 -67.910871
LeftForeArm -140.555744 5.887542 -7.107070
LeftHand -0.000037 42.203719 13.028101
LeftHandThumb1 30.357831 13.997178 22.438692
RightShoulder -7.734433 -25.955308 -15.220576
RightArm 46.966579 2.266218 78.865915
RightForeArm 98.822755 -17.731898 -2.706515
RightHand 0.000028 -3.545426 24.250968
RightHandThumb1 30.482666 -12.916435 -20.793814
LeftUpLeg -53.500543 1.221835 28.487675
LeftLeg 16.434401 -0.000000 0.000000
LeftFoot -12.817198 12.841742 0.448133
LeftToeBase 3.605300 0.000000 0.000000
RightUpLeg 3.728617 19.778339 -28.454659
RightLeg 97.880699 0.000000 0.000000
RightFoot 33.381472 -2.877993 -9.070207
RightToeBase 19.818600 -0.000000 -0.000000
3991
root -2.585695 33.878934 -3.769992 41.234547 18.740688 -27.703253
Spine -25.862447 3.720132 21.823066
Head -51.052094 -56.859538 62.534738
LeftShoulder 11.918186 3.861265 29.753527
LeftArm -26.750038 -39.717146 -67.602798
LeftForeArm -140.433685 5.692104 -6.844740
LeftHand 0.000065 42.324235 13.045277
LeftHandThumb1 30.357831 13.997178 22.438692
RightShoulder -7.734752 -25.967630 -15.169234
RightArm 46.982730 2.210321 79.012274
RightForeArm 98.782464 -17.707756 -2.690432
RightHand -0.000051 -3.538870 24.225655
RightHandThumb1 30.482666 -12.916435 -20.793814
LeftUpLeg -53.281854 1.187488 28.559320
LeftLeg 16.463600 0.000000 0.000000
LeftFoot -12.843882 12.957787 0.705123
LeftToeBase 3.648700 0.000000 0.000000
RightUpLeg 3.580124 19.775913 -28.359000
RightLeg 97.536400 -0.000000 0.000000
RightFoot 33.323748 -2.871013 -9.079790
RightToeBase 19.668100 0.000000 0.000000
3992
root -2.598395 33.878731 -3.752992 41.051078 18.758726 -27.719231
Spine -25.728782 3.709332 21.710609
Head -50.999633 -56.930683 62.567464
LeftShoulder 11.736090 3.824483 29.780044
LeftArm -26.708458 -39.434968 -67.493033
LeftForeArm -140.413153 5.867614 -7.047882
LeftHand -0.000032 42.286968 13.286379
LeftHandThumb1 30.357831 13.997178 22.438692
RightShoulder -7.818631 -25.916182 -15.181243
RightArm 46.974960 2.040603 79.164847
RightForeArm 98.762012 -17.693616 -2.682006
RightHand 0.000007 -3.498016 24.298603
RightHandThumb1 30.482666 -12.916435 -20.793814
LeftUpLeg -53.110281 1.089226 28.593054
LeftLeg 16.489700 -0.000000 -0.000000
LeftFoot -12.860932 13.061918 0.900794
LeftToeBase 3.612600 0.000000 0.000000
RightUpLeg 3.483026 19.656511 -28.294531
RightLeg 97.123299 0.000000 0.000000
RightFoot 33.236848 -2.857765 -9.240662
RightToeBase 19.744200 -0.000000 -0.000000
3993
root -2.617095 33.883233 -3.736292 40.851630 18.687995 -27.799978
Spine -25.550421 3.769481 21.549875
Head -50.937949 -56.951265 62.634651
LeftShoulder 11.724458 3.848281 29.801720
LeftArm -26.753276 -39.389735 -67.293761
LeftForeArm -140.368329 5.912761 -7.090182
LeftHand -0.000031 42.340930 13.433943
LeftHandThumb1 30.357831 13.997178 22.438692
RightShoulder -7.833323 -25.869834 -15.142051
RightArm 46.982749 1.981750 79.329125
RightForeArm 98.713224 -17.705793 -2.668635
RightHand -0.000021 -3.452041 24.347794
RightHandThumb1 30.482666 -12.916435 -20.793814
LeftUpLeg -52.880974 1.190187 28.545253
LeftLeg 16.485901 -0.000000 -0.000000
LeftFoot -12.858013 13.011045 0.980295
LeftToeBase 3.532700 0.000000 0.000000
RightUpLeg 3.323797 19.675081 -28.204949
RightLeg 96.740402 -0.000000 -0.000000
RightFoot 33.127674 -2.963459 -9.213729
RightToeBase 19.550100 -0.000000 -0.000000
3994
root -2.632495 33.886433 -3.718893 40.667570 18.639093 -27.847465
Spine -25.400127 3.828078 21.399564
Head -50.889950 -57.031785 62.656438
LeftShoulder 11.665618 3.841963 29.782512
LeftArm -26.777254 -39.317632 -67.137045
LeftForeArm -140.341138 5.919689 -7.091592
LeftHand -0.000070 42.426110 13.443748
LeftHandThumb1 30.357831 13.997178 22.438692
RightShoulder -7.931631 -25.832115 -15.161018
RightArm 47.003753 1.808688 79.504216
RightForeArm 98.671985 -17.773897 -2.665699
RightHand 0.000032 -3.477770 24.384162
RightHandThumb1 30.482666 -12.916435 -20.793814
LeftUpLeg -52.677488 1.280760 28.458699
LeftLeg 16.500299 -0.000000 0.000000
LeftFoot -12.895815 12.958354 1.111758
LeftToeBase 3.600900 -0.000000 -0.000000
RightUpLeg 3.188653 19.645974 -28.122038
RightLeg 96.302299 0.000000 0.000000
RightFoot 33.017288 -3.041267 -9.281298
RightToeBase 19.695200 -0.000000 -0.000000
3995
root -2.646295 33.891232 -3.701393 40.509729 18.558598 -27.931308
Spine -25.296952 3.975893 21.248441
Head -50.864496 -57.243724 62.715716
LeftShoulder 11.822466 3.886214 29.726951
LeftArm -26.835509 -39.524566 -66.900246
LeftForeArm -140.263374 5.708335 -6.822996
LeftHand 0.000067 42.499373 13.470767
LeftHandThumb1 30.357831 13.997178 22.438692
RightShoulder -7.926564 -25.803582 -15.266174
RightArm 47.009519 1.632870 79.703940
RightForeArm 98.642440 -17.810278 -2.661745
RightHand 0.000052 -3.531472 24.194560
RightHandThumb1 30.482666 -12.916435 -20.793814
LeftUpLeg -52.482756 1.436796 28.370288
LeftLeg 16.520300 -0.000000 -0.000000
LeftFoot -12.935947 12.882705 1.242394
LeftToeBase 3.617300 -0.000000 0.000000
RightUpLeg 2.989315 19.637205 -28.042828
RightLeg 95.860001 -0.000000 -0.000000
RightFoot 32.850252 -3.107813 -9.314026
RightToeBase 19.823099 -0.000000 -0.000000
3996
root -2.656695 33.892632 -3.684893 40.350529 18.515111 -27.941729
Spine -25.171652 4.038094 21.079562
Head -50.839968 -57.375408 62.714743
LeftShoulder 11.744769 3.821037 29.725914
LeftArm -26.722344 -39.434772 -66.792597
LeftForeArm -140.297171 5.944005 -7.109324
LeftHand -0.000023 42.541503 13.622288
LeftHandThumb1 30.357831 13.997178 22.438692
RightShoulder -7.929515 -25.803058 -15.297285
RightArm 47.033322 1.566663 79.800128
RightForeArm 98.679609 -17.939603 -2.692101
RightHand 0.000057 -3.543913 24.176496
RightHandThumb1 30.482666 -12.916435 -20.793814
LeftUpLeg -52.312397 1.509258 28.254187
LeftLeg 16.552299 0.000000 0.000000
LeftFoot -12.990632 12.822511 1.341248
LeftToeBase 3.702200 -0.000000 -0.000000
RightUpLeg 2.871485 19.541610 -27.976558
RightLeg 95.388100 -0.000000 0.000000
RightFoot 32.716080 -3.106696 -9.470537
RightToeBase 19.797501 0.000000 0.000000
